<svg version="1.1" xmlns="http://www.w3.org/2000/svg" viewBox="0 0 143.4234161376953 95.67568969726562" width="143.4234161376953" height="95.67568969726562">
  <!-- svg-source:excalidraw -->
  
  <defs>
    <style class="style-fonts">
      @font-face {
        font-family: "Virgil";
        src: url("https://excalidraw.com/Virgil.woff2");
      }
      @font-face {
        font-family: "Cascadia";
        src: url("https://excalidraw.com/Cascadia.woff2");
      }
    </style>
  </defs>
  <rect x="0" y="0" width="143.4234161376953" height="95.67568969726562" fill="#ffffff"/><g stroke-linecap="round" transform="translate(10 10) rotate(0 61.711708068847656 37.83784484863281)"><path d="M18.92 0 M18.92 0 C37.04 1.65, 54.24 1.5, 104.5 0 M18.92 0 C52.01 -1.47, 85.69 -1.04, 104.5 0 M104.5 0 C117.33 1.89, 124.29 7.14, 123.42 18.92 M104.5 0 C117.58 -1.33, 121.3 6.87, 123.42 18.92 M123.42 18.92 C125.01 28.12, 124.23 37.63, 123.42 56.76 M123.42 18.92 C122.96 32.44, 123.88 44.84, 123.42 56.76 M123.42 56.76 C121.57 68.45, 115.98 74.15, 104.5 75.68 M123.42 56.76 C122.97 69.66, 119.08 75.8, 104.5 75.68 M104.5 75.68 C80.5 75.6, 59.9 76.7, 18.92 75.68 M104.5 75.68 C75.68 75.25, 46.32 74.54, 18.92 75.68 M18.92 75.68 C6.59 76.54, -1.2 71.33, 0 56.76 M18.92 75.68 C4.93 76.61, 1.03 68.19, 0 56.76 M0 56.76 C-1.73 49.82, -0.07 41.48, 0 18.92 M0 56.76 C-0.63 45.81, 0.78 37.22, 0 18.92 M0 18.92 C-1.67 7.33, 7.1 0.78, 18.92 0 M0 18.92 C0.37 6.24, 4.01 0.78, 18.92 0" stroke="#000000" stroke-width="1" fill="none"/></g></svg>